<?xml version="1.0" encoding="UTF-8"?>
<!DOCTYPE svg PUBLIC "-//W3C//DTD SVG 1.1//EN" "http://www.w3.org/Graphics/SVG/1.1/DTD/svg11.dtd">
<!-- Creator: CorelDRAW X8 -->
<svg xmlns="http://www.w3.org/2000/svg" xml:space="preserve" width="2.75592in" height="2.75591in" version="1.1" style="shape-rendering:geometricPrecision; text-rendering:geometricPrecision; image-rendering:optimizeQuality; fill-rule:evenodd; clip-rule:evenodd"
viewBox="0 0 2758 2758"
 xmlns:xlink="http://www.w3.org/1999/xlink">
 <defs>
  <style type="text/css">
   <![CDATA[
    .fil0 {fill:#FEFEFE}
    .fil2 {fill:#F58634}
    .fil1 {fill:#00A859}
    .fil5 {fill:#ED3237;fill-rule:nonzero}
    .fil4 {fill:#F18E3F;fill-rule:nonzero}
    .fil3 {fill:#00A859;fill-rule:nonzero}
   ]]>
  </style>
 </defs>
 <g id="Layer_x0020_1">
  <metadata id="CorelCorpID_0Corel-Layer"/>
  <g id="_2455106582208">
   <polygon class="fil0" points="417,0 2341,0 2416,8 2502,38 2578,83 2642,140 2692,207 2729,281 2751,361 2758,429 2758,2329 2751,2397 2729,2477 2692,2551 2642,2617 2578,2674 2502,2720 2415,2749 2340,2758 417,2758 342,2749 255,2720 179,2674 116,2617 66,2551 29,2477 6,2396 0,2328 0,429 6,361 29,281 66,207 116,140 179,83 255,38 342,8 "/>
   <g>
    <path class="fil1" d="M426 162l1906 0 48 6 54 18 47 28 40 36 32 43 24 47 14 51 5 46 0 1884 -5 46 -14 51 -24 47 -32 42 -39 36 -48 29 -54 18 -49 6 -1905 0 -48 -6 -54 -18 -48 -29 -40 -36 -31 -42 -24 -47 -15 -52 -4 -45 0 -1884 4 -46 15 -51 24 -47 31 -43 40 -36 48 -28 54 -18 48 -6zm2 33l1902 0 43 5 47 16 42 25 35 32 28 37 21 42 12 45 4 41 0 1882 -3 40 -13 46 -21 42 -28 37 -35 32 -42 24 -48 17 -42 4 -1902 0 -43 -4 -47 -17 -42 -24 -35 -32 -28 -37 -21 -42 -13 -46 -4 -41 0 -1881 4 -41 13 -45 21 -42 28 -37 35 -32 42 -25 47 -16 43 -5z"/>
    <path class="fil2" d="M436 329l1885 0c63,0 108,56 108,116l0 1868c0,60 -45,116 -108,116l-1885 0c-62,0 -107,-56 -107,-116l0 -1868c0,-60 45,-116 107,-116zm0 8c-57,0 -99,53 -99,108l0 1868c0,55 42,107 99,107l1885 0c58,0 99,-52 99,-107l0 -1868c0,-55 -41,-108 -99,-108l-1885 0z"/>
    <g>
     <g>
      <path class="fil3" d="M691 1610c-101,217 -126,408 -51,516 142,204 589,34 998,-379 43,-44 84,-88 122,-133 0,0 -278,0 -278,0 0,0 -416,423 -659,483 -243,60 -266,-145 -103,-478 0,0 -29,-9 -29,-9z"/>
      <path class="fil4" d="M2066 1150c102,-219 127,-410 52,-518 -142,-204 -589,-34 -998,379 -43,43 -84,88 -122,133 0,0 278,0 278,0 0,0 416,-423 659,-483 243,-60 266,144 103,477 0,0 28,12 28,12z"/>
     </g>
     <g>
      <path class="fil5" d="M644 1524c38,0 66,-15 87,-45 17,-27 26,-62 26,-106 0,-39 -8,-71 -25,-96 -20,-30 -50,-46 -91,-46 0,0 -96,0 -96,0 0,0 0,11 0,11 9,1 15,3 18,5 6,4 9,12 9,24 0,0 0,214 0,214 0,9 -2,16 -6,21 -4,5 -11,7 -21,7 0,0 0,11 0,11 0,0 99,0 99,0zm-22 -261c0,-5 1,-9 4,-12 3,-3 8,-5 16,-5 24,0 41,17 51,51 6,22 10,49 10,81 0,48 -6,83 -18,104 -11,18 -26,27 -45,27 -8,0 -12,-2 -14,-6 -3,-4 -4,-10 -4,-19 0,0 0,-218 0,-218 0,0 0,-3 0,-3z"/>
      <path class="fil5" d="M807 1266c-20,29 -31,67 -31,113 0,45 10,83 29,111 19,29 44,43 74,43 29,0 54,-14 73,-43 19,-28 28,-66 28,-111 0,-46 -10,-84 -30,-113 -19,-28 -43,-42 -71,-42 -29,0 -53,14 -72,42zm112 19c7,24 10,56 10,94 0,47 -4,82 -13,105 -9,23 -21,35 -38,35 -16,0 -29,-12 -38,-35 -9,-23 -13,-58 -13,-105 0,-38 4,-69 11,-94 9,-30 22,-46 40,-46 19,0 33,16 41,46z"/>
      <path class="fil5" d="M984 1524c0,0 0,-11 0,-11 11,-1 18,-4 21,-7 4,-5 7,-14 7,-28 0,0 0,-205 0,-205 -6,-9 -11,-17 -15,-23 -5,-5 -8,-8 -11,-8 0,0 0,-11 0,-11 0,0 65,0 65,0 0,0 109,185 109,185 0,0 1,-131 1,-131 0,-15 -2,-25 -5,-31 -4,-8 -13,-12 -24,-12 0,0 0,-11 0,-11 0,0 67,0 67,0 0,0 0,11 0,11 -11,2 -17,5 -20,10 -3,4 -4,12 -4,24 0,0 0,256 0,256 0,0 -9,0 -9,0 0,0 -140,-235 -140,-235 0,0 -1,174 -1,174 0,15 2,25 7,31 4,6 12,9 24,11 0,0 0,11 0,11 0,0 -72,0 -72,0z"/>
      <path class="fil5" d="M1429 1399c0,0 0,12 0,12 -10,1 -17,4 -21,7 -4,5 -6,16 -6,33 0,0 0,55 0,55 -7,7 -19,13 -37,19 -17,6 -33,8 -47,8 -37,0 -66,-15 -86,-47 -18,-28 -27,-63 -27,-105 0,-44 10,-81 30,-111 20,-30 47,-46 80,-46 10,0 19,3 29,7 11,5 21,10 31,15 4,0 8,-2 10,-6 1,-2 3,-7 5,-14 0,0 9,0 9,0 0,0 0,101 0,101 0,0 -9,0 -9,0 -6,-22 -15,-42 -27,-58 -14,-20 -29,-30 -45,-30 -22,0 -37,14 -47,43 -7,23 -11,56 -11,98 0,44 5,78 15,102 11,24 26,37 46,37 13,0 22,-4 27,-9 4,-5 6,-13 6,-24 0,0 0,-45 0,-45 0,-13 -2,-21 -7,-25 -4,-3 -13,-5 -25,-5 0,0 0,-12 0,-12 0,0 107,0 107,0z"/>
      <path class="fil5" d="M1499 1524c0,0 0,-11 0,-11 10,-1 17,-4 21,-7 4,-5 6,-14 6,-28 0,0 0,-205 0,-205 -5,-9 -10,-17 -15,-23 -4,-5 -8,-8 -11,-8 0,0 0,-11 0,-11 0,0 66,0 66,0 0,0 109,185 109,185 0,0 1,-131 1,-131 0,-15 -2,-25 -5,-31 -5,-8 -13,-12 -25,-12 0,0 0,-11 0,-11 0,0 68,0 68,0 0,0 0,11 0,11 -11,2 -18,5 -20,10 -3,4 -5,12 -5,24 0,0 0,256 0,256 0,0 -8,0 -8,0 0,0 -140,-235 -140,-235 0,0 -1,174 -1,174 0,15 2,25 6,31 4,6 13,9 25,11 0,0 0,11 0,11 0,0 -72,0 -72,0z"/>
      <path class="fil5" d="M1922 1514c-7,0 -12,-5 -17,-14 -3,-7 -9,-23 -16,-47 0,0 -70,-229 -70,-229 0,0 -9,0 -9,0 0,0 -69,239 -69,239 -6,19 -10,31 -13,36 -4,8 -10,12 -18,14 0,0 0,11 0,11 0,0 64,0 64,0 0,0 0,-10 0,-10 -10,0 -17,-2 -21,-5 -3,-3 -5,-8 -5,-13 0,-3 1,-10 4,-20 2,-10 5,-23 9,-37 0,0 71,0 71,0 5,15 8,25 9,30 4,13 6,23 6,28 0,7 -2,11 -6,14 -3,2 -10,3 -19,3 0,0 0,10 0,10 0,0 101,0 101,0 0,0 0,-10 0,-10 0,0 -1,0 -1,0zm-126 -197c0,0 31,105 31,105 0,0 -60,0 -60,0 0,0 29,-105 29,-105z"/>
      <path class="fil5" d="M2212 1513c0,0 0,11 0,11 0,0 -103,0 -103,0 0,0 0,-11 0,-11 11,-1 18,-3 20,-6 5,-4 7,-13 7,-26 0,0 0,-218 0,-218 0,0 -79,261 -79,261 0,0 -8,0 -8,0 0,0 -78,-255 -78,-255 0,0 -1,202 -1,202 0,15 2,26 7,33 4,6 12,9 25,9 0,0 0,11 0,11 0,0 -73,0 -73,0 0,0 0,-11 0,-11 11,0 19,-2 22,-7 4,-5 6,-14 6,-28 0,0 0,-205 0,-205 0,-12 -2,-20 -6,-24 -4,-5 -11,-7 -22,-7 0,0 0,-11 0,-11 0,0 79,0 79,0 0,0 63,205 63,205 0,0 63,-205 63,-205 0,0 78,0 78,0 0,0 0,11 0,11 -10,0 -17,2 -20,5 -5,6 -7,17 -7,35 0,0 0,191 0,191 0,16 2,27 6,32 3,3 10,6 21,8z"/>
     </g>
    </g>
   </g>
  </g>
 </g>
</svg>
